<svg width="138" height="50" viewBox="0 0 138 50" fill="none" xmlns="http://www.w3.org/2000/svg">
<path d="M36.5644 18.2C36.5644 16.6 36.4044 15.4267 36.0844 14.68C35.8177 13.88 35.2577 13.32 34.4044 13C33.6044 12.68 32.351 12.52 30.6444 12.52C30.4844 12.52 30.4044 12.36 30.4044 12.04C30.4044 11.72 30.4844 11.56 30.6444 11.56L34.1644 11.64C36.0844 11.7467 37.711 11.8 39.0444 11.8C40.2177 11.8 41.8177 11.7467 43.8444 11.64L47.4444 11.56C47.6044 11.56 47.6844 11.72 47.6844 12.04C47.6844 12.36 47.6044 12.52 47.4444 12.52C45.6844 12.52 44.3777 12.68 43.5244 13C42.7244 13.2667 42.1644 13.7733 41.8444 14.52C41.5244 15.2667 41.3644 16.44 41.3644 18.04V42.52C41.3644 44.12 41.5244 45.32 41.8444 46.12C42.1644 46.8667 42.7244 47.3733 43.5244 47.64C44.3777 47.9067 45.6844 48.04 47.4444 48.04C47.6044 48.04 47.6844 48.2 47.6844 48.52C47.6844 48.84 47.6044 49 47.4444 49C45.951 49 44.751 48.9733 43.8444 48.92L39.0444 48.84L34.1644 48.92C33.311 48.9733 32.1377 49 30.6444 49C30.4844 49 30.4044 48.84 30.4044 48.52C30.4044 48.2 30.4844 48.04 30.6444 48.04C32.4044 48.04 33.6844 47.9067 34.4844 47.64C35.2844 47.3733 35.8177 46.8667 36.0844 46.12C36.4044 45.32 36.5644 44.12 36.5644 42.52V18.2ZM11.5244 29.4H38.6444V30.84H11.5244V29.4ZM9.36438 18.04C9.36438 16.44 9.20438 15.2667 8.88438 14.52C8.61771 13.7733 8.05771 13.2667 7.20438 13C6.40438 12.68 5.12438 12.52 3.36438 12.52C3.25771 12.52 3.20438 12.36 3.20438 12.04C3.20438 11.72 3.25771 11.56 3.36438 11.56L6.96438 11.64C8.99104 11.7467 10.5644 11.8 11.6844 11.8C13.0177 11.8 14.6977 11.7467 16.7244 11.64L20.1644 11.56C20.271 11.56 20.3244 11.72 20.3244 12.04C20.3244 12.36 20.271 12.52 20.1644 12.52C18.4577 12.52 17.1777 12.68 16.3244 13C15.471 13.32 14.8844 13.88 14.5644 14.68C14.2977 15.4267 14.1644 16.6 14.1644 18.2V42.52C14.1644 44.1733 14.2977 45.3733 14.5644 46.12C14.8844 46.8667 15.4444 47.3733 16.2444 47.64C17.0444 47.9067 18.351 48.04 20.1644 48.04C20.271 48.04 20.3244 48.2 20.3244 48.52C20.3244 48.84 20.271 49 20.1644 49C18.671 49 17.4977 48.9733 16.6444 48.92L11.6844 48.84L6.96438 48.92C6.05771 48.9733 4.83104 49 3.28438 49C3.17771 49 3.12437 48.84 3.12437 48.52C3.12437 48.2 3.17771 48.04 3.28438 48.04C5.04438 48.04 6.32438 47.9067 7.12438 47.64C7.97771 47.3733 8.56438 46.8667 8.88438 46.12C9.20438 45.32 9.36438 44.12 9.36438 42.52V18.04ZM68.41 10.6C70.3833 10.6 72.1167 11.08 73.61 12.04C75.1567 12.9467 75.93 14.5733 75.93 16.92C75.93 18.5733 75.53 20.04 74.73 21.32C73.93 22.6 72.9433 23.72 71.77 24.68C70.65 25.5867 69.1033 26.68 67.13 27.96C65.1567 29.2933 63.5833 30.44 62.41 31.4C61.2367 32.36 60.25 33.5067 59.45 34.84C58.65 36.12 58.25 37.5867 58.25 39.24C58.25 41.8 59.1567 43.88 60.97 45.48C62.7833 47.0267 65.0767 47.8 67.85 47.8C70.5167 47.8 72.9167 47.1067 75.05 45.72C77.1833 44.3333 78.8633 42.5467 80.09 40.36C81.3167 38.1733 81.93 35.9067 81.93 33.56C81.93 30.2533 80.33 28.6 77.13 28.6C76.97 28.6 76.8633 28.44 76.81 28.12C76.81 27.8 76.9167 27.64 77.13 27.64L90.89 27.56C91.1033 27.56 91.21 27.72 91.21 28.04C91.21 28.36 91.1033 28.52 90.89 28.52C89.5033 28.52 88.4633 28.68 87.77 29C87.13 29.32 86.6767 29.7467 86.41 30.28C86.1967 30.76 85.8767 31.64 85.45 32.92C84.1167 37.2933 81.8233 41.24 78.57 44.76C75.3167 48.2267 70.7567 49.96 64.89 49.96C61.1033 49.96 58.25 49.16 56.33 47.56C54.4633 45.96 53.53 43.9867 53.53 41.64C53.53 39.4 54.2767 37.48 55.77 35.88C57.2633 34.2267 59.5033 32.3333 62.49 30.2C65.53 28.0133 67.8233 26.0667 69.37 24.36C70.97 22.6533 71.77 20.6 71.77 18.2C71.77 16.3333 71.2633 14.8667 70.25 13.8C69.2367 12.68 67.9033 12.12 66.25 12.12C64.8633 12.12 63.77 12.5733 62.97 13.48C62.2233 14.3867 61.85 15.72 61.85 17.48C61.85 20.36 63.1567 23.7733 65.77 27.72C68.4367 31.6667 71.9033 35.4533 76.17 39.08C79.4233 41.8533 82.5967 44.04 85.69 45.64C88.7833 47.1867 91.13 47.9867 92.73 48.04C92.89 48.04 92.97 48.2 92.97 48.52C92.97 48.84 92.89 49 92.73 49H84.49C83.3167 49 81.61 48.36 79.37 47.08C77.1833 45.7467 74.7033 43.8267 71.93 41.32C69.37 39.08 66.8367 36.5467 64.33 33.72C61.8233 30.8933 60.0367 28.3333 58.97 26.04C58.01 23.96 57.53 22.04 57.53 20.28C57.53 18.36 58.0367 16.68 59.05 15.24C60.0633 13.7467 61.3967 12.6 63.05 11.8C64.7567 11 66.5433 10.6 68.41 10.6ZM116.744 49.96C112.478 49.96 108.744 49.08 105.544 47.32C102.398 45.5067 99.9977 43.1333 98.3444 40.2C96.691 37.2667 95.8644 34.1733 95.8644 30.92C95.8644 26.76 96.7977 23.16 98.6644 20.12C100.531 17.0267 103.198 14.68 106.664 13.08C110.131 11.4267 114.211 10.6 118.904 10.6C121.144 10.6 123.278 10.8133 125.304 11.24C127.331 11.6667 129.038 12.28 130.424 13.08C130.744 13.24 130.931 13.4533 130.984 13.72C131.091 13.9867 131.171 14.36 131.224 14.84L132.024 22.36C132.024 22.52 131.864 22.6267 131.544 22.68C131.278 22.68 131.118 22.6 131.064 22.44C129.891 18.76 128.131 16.0667 125.784 14.36C123.438 12.6533 120.504 11.8 116.984 11.8C112.291 11.8 108.531 13.4267 105.704 16.68C102.878 19.88 101.464 24.28 101.464 29.88C101.464 33.56 102.158 36.84 103.544 39.72C104.984 42.5467 106.984 44.76 109.544 46.36C112.158 47.96 115.198 48.76 118.664 48.76C121.331 48.76 123.278 48.52 124.504 48.04C125.784 47.56 126.638 46.6533 127.064 45.32C127.544 43.9333 127.784 41.8 127.784 38.92C127.784 37.5333 127.624 36.5733 127.304 36.04C127.038 35.4533 126.424 35.08 125.464 34.92C124.558 34.7067 122.931 34.6 120.584 34.6C120.264 34.6 120.104 34.3867 120.104 33.96C120.104 33.8 120.131 33.6667 120.184 33.56C120.291 33.4 120.398 33.32 120.504 33.32C123.278 33.5333 126.078 33.64 128.904 33.64C130.184 33.64 132.318 33.5867 135.304 33.48C135.411 33.48 135.491 33.56 135.544 33.72C135.651 33.8267 135.704 33.9333 135.704 34.04C135.704 34.4133 135.571 34.6 135.304 34.6C134.238 34.5467 133.491 34.6267 133.064 34.84C132.638 35.0533 132.371 35.5067 132.264 36.2C132.158 36.84 132.104 38.0133 132.104 39.72C132.104 42.12 132.158 43.8 132.264 44.76C132.371 45.72 132.424 46.3867 132.424 46.76C132.424 47.08 132.371 47.2933 132.264 47.4C132.211 47.4533 131.971 47.56 131.544 47.72C128.024 49.2133 123.091 49.96 116.744 49.96Z" fill="white"/>
</svg>
